<?xml version="1.0" encoding="UTF-8" standalone="no" ?>
<!DOCTYPE svg PUBLIC "-//W3C//DTD SVG 1.1//EN"
  "http://www.w3.org/Graphics/SVG/1.1/DTD/svg11.dtd">
<svg
  version="1.1"
  xmlns="http://www.w3.org/2000/svg"
  xmlns:xlink="http://www.w3.org/1999/xlink"
  preserveAspectRatio="xMidYMid meet"
  viewBox="0 0 640 640"
  width="640"
  height="640"
><defs><path
      d="M29.18 463.69C25.33 469.94 29.31 478.06 36.6 478.86C53.95 480.7 140.73 489.9 296.92 506.45L161.12 268.83C81.96 385.74 37.98 450.7 29.18 463.69ZM131.06 241.35C73.58 206.87 41.65 187.71 35.26 183.88C31.92 181.88 27.68 184.27 27.68 188.16C27.68 208.51 27.68 371.32 27.68 391.68C27.68 396.71 34.3 398.59 36.95 394.29C49.49 373.9 80.87 322.92 131.06 241.35ZM293.5 639.08C300.12 642.14 307.68 637.29 307.68 630C307.68 624.53 307.68 597.17 307.68 547.91C155.02 531.19 70.21 521.9 53.25 520.04C47.68 519.41 45.46 527.03 50.5 529.5C99.1 551.42 269.2 628.12 293.5 639.08ZM251.93 28.6C257.36 19.77 247.45 9.54 238.46 14.67C219.61 27 68.8 125.61 49.95 137.94C46.86 139.96 46.96 144.51 50.11 146.41C56.9 150.47 90.87 170.76 152.02 207.27C211.97 100.07 245.27 40.51 251.93 28.6ZM464.2 220C392.51 93.72 352.69 23.56 344.72 9.53C340.81 3.18 334.25 0 327.68 0C321.12 0 314.56 3.18 310.65 9.53C302.68 23.56 262.86 93.71 191.17 220L327.68 220L464.2 220ZM524.31 241.36C580.78 333.13 612.15 384.1 618.42 394.3C621.06 398.6 627.68 396.73 627.68 391.67C627.68 371.32 627.68 208.51 627.68 188.16C627.68 184.27 623.45 181.88 620.11 183.88C607.34 191.54 575.4 210.7 524.31 241.36ZM605.26 146.4C608.42 144.5 608.51 139.95 605.42 137.92C586.57 125.6 435.76 27 416.91 14.67C407.92 9.54 398.01 19.77 403.43 28.6C410.09 40.51 443.4 100.07 503.35 207.27C564.49 170.75 598.46 150.46 605.26 146.4ZM347.68 547.9C347.68 597.15 347.68 624.51 347.68 629.99C347.68 637.29 355.25 642.13 361.87 639.06C386.17 628.11 580.57 540.45 604.87 529.49C609.91 527.03 607.68 519.41 602.12 520.04C568.2 523.75 483.38 533.04 347.68 547.9ZM358.46 506.45C514.65 489.9 601.43 480.7 618.78 478.86C626.07 478.05 630.05 469.94 626.2 463.69C617.4 450.7 573.42 385.74 494.25 268.83L358.46 506.45ZM202.15 260L327.68 479.69L453.22 260L327.68 260L202.15 260Z"
      id="b2pmZQLmVr"
    /><path
      d="M 208.828 230.301 L 209.108 231.621 C 209.108 231.934 208.998 232.194 208.778 232.401 C 208.551 232.608 208.288 232.711 207.988 232.711 C 207.688 232.711 207.468 232.571 207.328 232.291 C 207.188 232.011 207.118 231.704 207.118 231.371 C 207.118 230.358 207.555 229.448 208.428 228.641 C 209.295 227.828 210.278 227.421 211.378 227.421 L 211.548 227.421 C 211.921 226.001 212.481 225.291 213.228 225.291 C 213.448 225.291 213.558 225.591 213.558 226.191 C 213.558 226.298 213.531 226.744 213.478 227.531 C 213.758 227.571 214.085 227.618 214.458 227.671 C 215.338 227.804 216.071 227.871 216.658 227.871 C 217.245 227.871 217.841 227.771 218.448 227.571 C 219.055 227.378 219.461 227.281 219.668 227.281 C 220.188 227.281 220.448 227.548 220.448 228.081 C 220.448 228.608 220.168 229.008 219.608 229.281 C 219.048 229.554 218.238 229.691 217.178 229.691 C 216.111 229.691 214.811 229.448 213.278 228.961 C 213.058 230.248 212.928 231.218 212.888 231.871 C 212.855 232.524 212.818 233.494 212.778 234.781 C 213.565 234.748 214.648 234.731 216.028 234.731 C 216.268 234.731 216.478 234.824 216.658 235.011 C 216.831 235.198 216.918 235.391 216.918 235.591 C 216.918 235.798 216.855 235.968 216.728 236.101 C 216.595 236.228 216.455 236.291 216.308 236.291 L 212.748 236.101 C 212.675 237.928 212.615 239.168 212.568 239.821 C 212.521 240.474 212.338 241.081 212.018 241.641 C 211.705 242.201 211.331 242.481 210.898 242.481 C 210.658 242.481 210.395 242.354 210.108 242.101 C 209.815 241.854 209.668 241.618 209.668 241.391 C 209.668 241.164 209.701 240.991 209.768 240.871 C 209.835 240.751 209.908 240.631 209.988 240.511 C 210.075 240.391 210.138 240.291 210.178 240.211 C 210.398 239.731 210.601 238.398 210.788 236.211 L 209.698 236.351 C 209.551 236.351 209.431 236.301 209.338 236.201 C 209.245 236.094 209.198 235.971 209.198 235.831 C 209.198 235.691 209.225 235.564 209.278 235.451 C 209.331 235.344 209.445 235.258 209.618 235.191 C 209.785 235.124 209.905 235.081 209.978 235.061 C 210.278 234.988 210.578 234.951 210.878 234.951 C 210.911 234.504 210.961 233.534 211.028 232.041 C 211.095 230.548 211.191 229.381 211.318 228.541 C 211.211 228.521 211.045 228.511 210.818 228.511 C 209.491 228.511 208.828 229.108 208.828 230.301 Z"
      transform="matrix(41.578826904296875, -5.104330062866211, -0.04421500116586685, 28.148347854614258, -8555.0703125, -5197.1435546875)"
      id="cEgyzY9DH"
    /></defs><g><g><g><use
          xlink:href="#b2pmZQLmVr"
          opacity="1"
          fill="#507ef2"
          fill-opacity="1"
        /><g><use
            xlink:href="#b2pmZQLmVr"
            opacity="1"
            fill-opacity="0"
            stroke="#000000"
            stroke-width="1"
            stroke-opacity="0"
          /></g></g><g><use
          xlink:href="#cEgyzY9DH"
          opacity="1"
          fill="#31e184"
          fill-opacity="1"
        /><g><use
            xlink:href="#cEgyzY9DH"
            opacity="1"
            fill-opacity="0"
            stroke="#000000"
            stroke-width="1"
            stroke-opacity="0"
          /></g></g></g></g></svg>
