<?xml version="1.0" encoding="UTF-8" standalone="no"?>
<!DOCTYPE svg PUBLIC "-//W3C//DTD SVG 1.1//EN" "http://www.w3.org/Graphics/SVG/1.1/DTD/svg11.dtd">
<svg version="1.1" xmlns="http://www.w3.org/2000/svg" xmlns:xlink="http://www.w3.org/1999/xlink" preserveAspectRatio="xMidYMid meet" viewBox="0 0 640 640" width="640" height="640"><defs><path d="M29.18 463.69C25.33 469.94 29.31 478.06 36.6 478.86C53.95 480.7 140.73 489.9 296.92 506.45L161.12 268.83C81.96 385.74 37.98 450.7 29.18 463.69ZM131.06 241.35C73.58 206.87 41.65 187.71 35.26 183.88C31.92 181.88 27.68 184.27 27.68 188.16C27.68 208.51 27.68 371.32 27.68 391.68C27.68 396.71 34.3 398.59 36.95 394.29C49.49 373.9 80.87 322.92 131.06 241.35ZM293.5 639.08C300.12 642.14 307.68 637.29 307.68 630C307.68 624.53 307.68 597.17 307.68 547.91C155.02 531.19 70.21 521.9 53.25 520.04C47.68 519.41 45.46 527.03 50.5 529.5C99.1 551.42 269.2 628.12 293.5 639.08ZM251.93 28.6C257.36 19.77 247.45 9.54 238.46 14.67C219.61 27 68.8 125.61 49.95 137.94C46.86 139.96 46.96 144.51 50.11 146.41C56.9 150.47 90.87 170.76 152.02 207.27C211.97 100.07 245.27 40.51 251.93 28.6ZM464.2 220C392.51 93.72 352.69 23.56 344.72 9.53C340.81 3.18 334.25 0 327.68 0C321.12 0 314.56 3.18 310.65 9.53C302.68 23.56 262.86 93.71 191.17 220L327.68 220L464.2 220ZM524.31 241.36C580.78 333.13 612.15 384.1 618.42 394.3C621.06 398.6 627.68 396.73 627.68 391.67C627.68 371.32 627.68 208.51 627.68 188.16C627.68 184.27 623.45 181.88 620.11 183.88C607.34 191.54 575.4 210.7 524.31 241.36ZM605.26 146.4C608.42 144.5 608.51 139.95 605.42 137.92C586.57 125.6 435.76 27 416.91 14.67C407.92 9.54 398.01 19.77 403.43 28.6C410.09 40.51 443.4 100.07 503.35 207.27C564.49 170.75 598.46 150.46 605.26 146.4ZM347.68 547.9C347.68 597.15 347.68 624.51 347.68 629.99C347.68 637.29 355.25 642.13 361.87 639.06C386.17 628.11 580.57 540.45 604.87 529.49C609.91 527.03 607.68 519.41 602.12 520.04C568.2 523.75 483.38 533.04 347.68 547.9ZM358.46 506.45C514.65 489.9 601.43 480.7 618.78 478.86C626.07 478.05 630.05 469.94 626.2 463.69C617.4 450.7 573.42 385.74 494.25 268.83L358.46 506.45ZM202.15 260L327.68 479.69L453.22 260L327.68 260L202.15 260Z" id="b2pmZQLmVr"></path><path d="M320.68 350.93C316.31 344.5 314.19 336.1 314.32 325.75C314.45 309.75 318.51 288.97 326.51 263.39C334.5 237.82 345.68 214.71 360.04 194.06C374.41 173.41 391.2 162.49 410.42 161.28C418.66 161.51 424.59 164.51 428.21 170.28C431.83 176.06 433.6 183.22 433.52 191.77C433.58 198.51 430.48 215.31 424.21 242.18C417.94 269.04 408.13 295.08 394.78 320.31C381.43 345.53 364.16 359.05 342.97 360.86C342.97 360.86 342.97 360.86 342.97 360.86C331.02 358.52 323.59 355.21 320.68 350.93ZM152.96 270.77C156.72 273.54 161.22 274.93 166.48 274.93C183.01 273.52 195.12 263.7 202.79 245.46C210.46 227.22 217.98 208.98 225.34 190.74C232.71 172.5 244.19 162.68 259.8 161.28C262.54 161.28 264.46 161.97 265.58 163.35C266.7 164.74 267.24 166.82 267.2 169.59C267.16 172.46 266.54 175.96 265.35 180.1C264.16 184.24 262.62 188.44 260.73 192.69C252.23 217.82 184.22 418.89 175.72 444.02C167.78 463.45 155.93 474.49 140.16 477.15C124.39 479.8 109.8 481.33 96.39 481.73C82.98 482.13 75.85 488.66 75 501.31C75.02 506.16 76.6 510.55 79.74 514.47C82.87 518.4 87.46 520.48 93.48 520.71C95.08 520.52 105.28 519.75 124.09 518.4C142.9 517.05 166.27 516.28 194.2 516.09C221.23 516.28 244.1 517.05 262.81 518.4C281.52 519.75 291.91 520.52 293.99 520.71C300.02 520.48 304.6 518.4 307.74 514.47C310.88 510.55 312.45 506.16 312.47 501.31C311.89 489.98 307.82 483.98 300.26 483.31C292.69 482.63 285.13 481.28 277.57 479.27C270 477.25 265.93 468.58 265.35 453.26C265.39 449.6 265.77 446.06 266.5 442.63C267.24 439.21 268.08 435.66 269.05 432.01C270.62 427.29 283.18 389.6 284.75 384.88C288.55 375.68 297.59 374.91 311.9 382.57C326.2 390.23 347.95 395.01 377.16 396.89C406.36 396.28 437.58 380.42 470.83 349.31C504.07 318.2 522.13 275.54 525 221.34C524.86 190.67 516.36 165.61 499.47 146.15C482.59 126.68 458.14 116.64 426.13 116C409.63 116.21 392.96 120.64 376.12 129.28C359.27 137.93 344.22 149.51 330.95 164.05C327.72 150.32 321.48 138.97 312.24 129.98C303 120.99 290.76 116.33 275.51 116C250.07 117.55 227.75 129.03 208.54 150.43C189.33 171.83 174.33 193.84 163.54 216.48C152.74 239.11 147.26 253.05 147.07 258.3C147.07 258.3 147.07 258.3 147.07 258.3C148.5 264.76 150.46 268.92 152.96 270.77Z" id="cEgyzY9DH"></path></defs><g><g><g><use xlink:href="#b2pmZQLmVr" opacity="1" fill="#507ef2" fill-opacity="1"></use><g><use xlink:href="#b2pmZQLmVr" opacity="1" fill-opacity="0" stroke="#000000" stroke-width="1" stroke-opacity="0"></use></g></g><g><use xlink:href="#cEgyzY9DH" opacity="1" fill="#31e184" fill-opacity="1"></use><g><use xlink:href="#cEgyzY9DH" opacity="1" fill-opacity="0" stroke="#000000" stroke-width="1" stroke-opacity="0"></use></g></g></g></g></svg>